<svg xmlns="http://www.w3.org/2000/svg" xmlns:xlink="http://www.w3.org/1999/xlink"
     style="margin:auto;background:#fff;display:block;" width="200px" height="200px" viewBox="0 0 100 100"
     preserveAspectRatio="xMidYMid">
    <g transform="translate(50 50)">
        <g transform="scale(0.686861 0.686861)">
            <path d="M0 0L0 -40A40 40 0 0 1 28.2842712474619 -28.284271247461902" transform="rotate(0 0 0)"
                  stroke="none" fill="#e15b64"></path>
            <animateTransform attributeName="transform" type="scale" values="1;0.5" keyTimes="0;1" dur="1s"
                              repeatCount="indefinite" begin="-0.875s"></animateTransform>
        </g>
        <g transform="scale(0.749361 0.749361)">
            <path d="M0 0L0 -40A40 40 0 0 1 28.2842712474619 -28.284271247461902" transform="rotate(45 0 0)"
                  stroke="none" fill="#f47e60"></path>
            <animateTransform attributeName="transform" type="scale" values="1;0.5" keyTimes="0;1" dur="1s"
                              repeatCount="indefinite" begin="-0.75s"></animateTransform>
        </g>
        <g transform="scale(0.811861 0.811861)">
            <path d="M0 0L0 -40A40 40 0 0 1 28.2842712474619 -28.284271247461902" transform="rotate(90 0 0)"
                  stroke="none" fill="#f8b26a"></path>
            <animateTransform attributeName="transform" type="scale" values="1;0.5" keyTimes="0;1" dur="1s"
                              repeatCount="indefinite" begin="-0.625s"></animateTransform>
        </g>
        <g transform="scale(0.874361 0.874361)">
            <path d="M0 0L0 -40A40 40 0 0 1 28.2842712474619 -28.284271247461902" transform="rotate(135 0 0)"
                  stroke="none" fill="#abbd81"></path>
            <animateTransform attributeName="transform" type="scale" values="1;0.5" keyTimes="0;1" dur="1s"
                              repeatCount="indefinite" begin="-0.5s"></animateTransform>
        </g>
        <g transform="scale(0.936861 0.936861)">
            <path d="M0 0L0 -40A40 40 0 0 1 28.2842712474619 -28.284271247461902" transform="rotate(180 0 0)"
                  stroke="none" fill="#e15b64"></path>
            <animateTransform attributeName="transform" type="scale" values="1;0.5" keyTimes="0;1" dur="1s"
                              repeatCount="indefinite" begin="-0.375s"></animateTransform>
        </g>
        <g transform="scale(0.999361 0.999361)">
            <path d="M0 0L0 -40A40 40 0 0 1 28.2842712474619 -28.284271247461902" transform="rotate(225 0 0)"
                  stroke="none" fill="#f47e60"></path>
            <animateTransform attributeName="transform" type="scale" values="1;0.5" keyTimes="0;1" dur="1s"
                              repeatCount="indefinite" begin="-0.25s"></animateTransform>
        </g>
        <g transform="scale(0.561861 0.561861)">
            <path d="M0 0L0 -40A40 40 0 0 1 28.2842712474619 -28.284271247461902" transform="rotate(270 0 0)"
                  stroke="none" fill="#f8b26a"></path>
            <animateTransform attributeName="transform" type="scale" values="1;0.5" keyTimes="0;1" dur="1s"
                              repeatCount="indefinite" begin="-0.125s"></animateTransform>
        </g>
        <g transform="scale(0.624361 0.624361)">
            <path d="M0 0L0 -40A40 40 0 0 1 28.2842712474619 -28.284271247461902" transform="rotate(315 0 0)"
                  stroke="none" fill="#abbd81"></path>
            <animateTransform attributeName="transform" type="scale" values="1;0.5" keyTimes="0;1" dur="1s"
                              repeatCount="indefinite" begin="0s"></animateTransform>
        </g>
    </g>
</svg>